<?xml version="1.0" encoding="iso-8859-1"?>
<!-- Uploaded to: SVG Repo, www.svgrepo.com, Generator: SVG Repo Mixer Tools -->
<svg version="1.1" id="Layer_1" xmlns="http://www.w3.org/2000/svg" xmlns:xlink="http://www.w3.org/1999/xlink" 
	 viewBox="0 0 512 512" xml:space="preserve">
<polygon style="fill:#82C8DB;" points="462.689,38.036 131.984,368.74 158.291,364.983 207.145,353.708 492.754,68.099 "/>
<polygon style="fill:#A3DDE9;" points="477.721,53.068 432.625,7.972 147.017,293.581 135.743,342.435 131.984,368.74 
	155.712,347.077 192.113,338.676 "/>
<polygon style="fill:#82C8DB;" points="135.743,342.435 19.244,458.932 19.244,504.028 158.291,364.983 "/>
<rect x="59.412" y="377.539" transform="matrix(-0.7071 -0.7071 0.7071 -0.7071 -107.9894 752.8648)" style="fill:#06384A;" width="85.033" height="42.517"/>
<path d="M498.39,62.463L438.263,2.335C436.766,0.84,434.739,0,432.625,0c-2.114,0-4.141,0.84-5.638,2.335l-30.063,30.063l0,0h-0.001
	l-45.089,45.089c-0.002,0.002-0.004,0.004-0.006,0.006c-0.002,0.002-0.004,0.004-0.006,0.006l-90.183,90.183
	c-0.001,0.001-0.002,0.002-0.003,0.003s-0.002,0.002-0.003,0.003L141.38,287.943c-1.055,1.057-1.795,2.388-2.13,3.845l-10.76,46.626
	l-22.81,22.809l-13.153-13.152c-3.114-3.113-8.161-3.113-11.274,0l-9.395,9.395l-9.394-9.395c-3.114-3.113-8.162-3.114-11.273,0
	c-3.114,3.113-3.114,8.16-0.001,11.274l9.395,9.395l-9.395,9.395c-3.113,3.113-3.113,8.161,0,11.273l13.153,13.153l-50.732,50.733
	c-1.494,1.494-2.334,3.523-2.334,5.637v45.096c0,3.225,1.942,6.131,4.921,7.365c0.986,0.408,2.022,0.607,3.048,0.607
	c2.075,0,4.114-0.81,5.64-2.335l73.28-73.28l13.153,13.153c1.496,1.496,3.523,2.335,5.638,2.335c2.114,0,4.141-0.84,5.638-2.335
	l9.394-9.394l11.273,11.273l-16.911,16.911c-3.113,3.113-3.113,8.161,0,11.274c1.557,1.557,3.597,2.335,5.638,2.335
	c2.04,0,4.081-0.778,5.638-2.335l16.91-16.911l1.878,1.878c1.557,1.556,3.598,2.335,5.638,2.335c2.04,0,4.081-0.778,5.638-2.335
	c3.113-3.113,3.113-8.161,0-11.274l-1.879-1.879l16.911-16.911c3.113-3.113,3.113-8.161,0-11.274c-3.113-3.113-8.16-3.113-11.274,0
	l-16.911,16.911l-11.273-11.273l9.395-9.395c3.113-3.113,3.113-8.161,0-11.273l-13.153-13.153l22.809-22.81l46.626-10.76
	c1.455-0.336,2.788-1.075,3.845-2.131L498.391,73.736C501.504,70.624,501.504,65.576,498.39,62.463z M27.217,484.783v-22.548
	l48.398-48.398l11.274,11.274L27.217,484.783z M116.954,432.627l-13.149-13.149c-0.001-0.001-0.002-0.003-0.003-0.004
	c-0.001-0.001-0.002-0.002-0.004-0.003l-35.697-35.698l18.79-18.79l13.147,13.147c0.002,0.002,0.003,0.003,0.005,0.005
	s0.003,0.003,0.005,0.005l22.533,22.533c0.003,0.003,0.006,0.007,0.01,0.011c0.003,0.003,0.007,0.006,0.011,0.01l13.143,13.143
	l-9.388,9.388c-0.002,0.002-0.005,0.004-0.009,0.007c-0.002,0.003-0.004,0.005-0.007,0.009L116.954,432.627z M203.125,346.455
	l-46.626,10.76c-1.455,0.336-2.788,1.075-3.845,2.131l-24.426,24.427L116.955,372.5l24.427-24.427
	c1.055-1.057,1.795-2.388,2.13-3.845l10.76-46.626l22.81-22.81l24.427,24.427c1.557,1.556,3.598,2.335,5.638,2.335
	s4.081-0.779,5.638-2.335c3.113-3.113,3.113-8.161,0-11.274l-24.427-24.427l33.822-33.822l24.427,24.427
	c1.557,1.556,3.598,2.335,5.638,2.335c2.04,0,4.081-0.778,5.638-2.335c3.113-3.113,3.113-8.161,0-11.273l-24.427-24.427
	l33.821-33.821l24.427,24.427c1.557,1.556,3.598,2.335,5.638,2.335c2.04,0,4.081-0.778,5.638-2.335
	c3.113-3.113,3.113-8.161,0-11.273l-24.427-24.427l33.821-33.821l24.427,24.427c1.557,1.556,3.598,2.335,5.638,2.335
	c2.04,0,4.081-0.778,5.638-2.335c3.113-3.113,3.113-8.161,0-11.273l-24.428-24.427l33.821-33.821l24.427,24.427
	c1.557,1.556,3.598,2.335,5.638,2.335s4.081-0.778,5.638-2.335c3.113-3.113,3.113-8.161,0-11.273l-24.432-24.433l33.822-33.822
	l24.427,24.427c1.557,1.556,3.598,2.335,5.638,2.335c2.04,0,4.081-0.778,5.638-2.335c3.113-3.113,3.113-8.161,0-11.273
	l-24.427-24.427l18.789-18.79l48.854,48.854L203.125,346.455z"/>
</svg>